<mxfile host="drawio-plugin" modified="2023-06-03T20:07:08.181Z" agent="5.0 (Windows NT 6.2; Win64; x64) AppleWebKit/537.36 (KHTML, like Gecko) Chrome/104.0.5112.102 Safari/537.36" etag="qki4XMM4kocWPA7FoOlx" version="20.5.3" type="embed" pages="2"><diagram id="RBEaezos3FXac58ys2MJ" name="Containers"><mxGraphModel dx="1485" dy="375" grid="1" gridSize="10" guides="1" tooltips="1" connect="1" arrows="1" fold="1" page="1" pageScale="1" pageWidth="850" pageHeight="1100" math="0" shadow="0"><root><mxCell id="0"/><mxCell id="1" parent="0"/><mxCell id="10" style="edgeStyle=orthogonalEdgeStyle;rounded=0;orthogonalLoop=1;jettySize=auto;html=1;entryX=0.5;entryY=0;entryDx=0;entryDy=0;entryPerimeter=0;" parent="1" source="2" target="6" edge="1"><mxGeometry relative="1" as="geometry"><Array as="points"><mxPoint x="320" y="190"/><mxPoint x="320" y="190"/></Array></mxGeometry></mxCell><mxCell id="11" value="Search for available deliveries" style="edgeLabel;html=1;align=center;verticalAlign=middle;resizable=0;points=[];" parent="10" vertex="1" connectable="0"><mxGeometry x="0.1043" y="-1" relative="1" as="geometry"><mxPoint as="offset"/></mxGeometry></mxCell><mxCell id="7" style="edgeStyle=orthogonalEdgeStyle;rounded=0;orthogonalLoop=1;jettySize=auto;html=1;entryX=0.5;entryY=0;entryDx=0;entryDy=0;entryPerimeter=0;" parent="1" source="3" target="6" edge="1"><mxGeometry relative="1" as="geometry"><Array as="points"><mxPoint x="70" y="270"/><mxPoint x="320" y="270"/></Array></mxGeometry></mxCell><mxCell id="8" value="Places an order&amp;nbsp;" style="edgeLabel;html=1;align=center;verticalAlign=middle;resizable=0;points=[];" parent="7" vertex="1" connectable="0"><mxGeometry x="-0.1577" y="-2" relative="1" as="geometry"><mxPoint as="offset"/></mxGeometry></mxCell><object placeholders="1" c4Name="Customer" c4Type="Person" c4Description="Places an order" label="&lt;font style=&quot;font-size: 16px&quot;&gt;&lt;b&gt;%c4Name%&lt;/b&gt;&lt;/font&gt;&lt;div&gt;[%c4Type%]&lt;/div&gt;&lt;br&gt;&lt;div&gt;&lt;font style=&quot;font-size: 11px&quot;&gt;&lt;font color=&quot;#cccccc&quot;&gt;%c4Description%&lt;/font&gt;&lt;/div&gt;" id="3"><mxCell style="html=1;fontSize=11;dashed=0;whiteSpace=wrap;fillColor=#083F75;strokeColor=#06315C;fontColor=#ffffff;shape=mxgraph.c4.person2;align=center;metaEdit=1;points=[[0.5,0,0],[1,0.5,0],[1,0.75,0],[0.75,1,0],[0.5,1,0],[0.25,1,0],[0,0.75,0],[0,0.5,0]];resizable=0;" parent="1" vertex="1"><mxGeometry x="-30" width="200" height="180" as="geometry"/></mxCell></object><mxCell id="9" style="edgeStyle=orthogonalEdgeStyle;rounded=0;orthogonalLoop=1;jettySize=auto;html=1;entryX=0.5;entryY=0;entryDx=0;entryDy=0;entryPerimeter=0;startArrow=none;" parent="1" source="2" target="6" edge="1"><mxGeometry relative="1" as="geometry"/></mxCell><mxCell id="7efCB9DDL_w3HXMfLn-I-29" style="edgeStyle=orthogonalEdgeStyle;rounded=0;orthogonalLoop=1;jettySize=auto;html=1;entryX=0.5;entryY=0;entryDx=0;entryDy=0;entryPerimeter=0;" edge="1" parent="1" source="4" target="7efCB9DDL_w3HXMfLn-I-26"><mxGeometry relative="1" as="geometry"/></mxCell><mxCell id="7efCB9DDL_w3HXMfLn-I-33" value="Adds meals to menu" style="edgeLabel;html=1;align=center;verticalAlign=middle;resizable=0;points=[];" vertex="1" connectable="0" parent="7efCB9DDL_w3HXMfLn-I-29"><mxGeometry x="-0.8431" relative="1" as="geometry"><mxPoint as="offset"/></mxGeometry></mxCell><mxCell id="7efCB9DDL_w3HXMfLn-I-31" style="edgeStyle=orthogonalEdgeStyle;rounded=0;orthogonalLoop=1;jettySize=auto;html=1;entryX=0.5;entryY=0;entryDx=0;entryDy=0;entryPerimeter=0;" edge="1" parent="1" source="4" target="6"><mxGeometry relative="1" as="geometry"><Array as="points"><mxPoint x="610" y="270"/><mxPoint x="320" y="270"/></Array></mxGeometry></mxCell><mxCell id="7efCB9DDL_w3HXMfLn-I-32" value="Accepts orders" style="edgeLabel;html=1;align=center;verticalAlign=middle;resizable=0;points=[];" vertex="1" connectable="0" parent="7efCB9DDL_w3HXMfLn-I-31"><mxGeometry x="-0.2352" y="-4" relative="1" as="geometry"><mxPoint as="offset"/></mxGeometry></mxCell><object placeholders="1" c4Name="Restaurant Manager" c4Type="Person" c4Description="Acepts and process orders" label="&lt;font style=&quot;font-size: 16px&quot;&gt;&lt;b&gt;%c4Name%&lt;/b&gt;&lt;/font&gt;&lt;div&gt;[%c4Type%]&lt;/div&gt;&lt;br&gt;&lt;div&gt;&lt;font style=&quot;font-size: 11px&quot;&gt;&lt;font color=&quot;#cccccc&quot;&gt;%c4Description%&lt;/font&gt;&lt;/div&gt;" id="4"><mxCell style="html=1;fontSize=11;dashed=0;whiteSpace=wrap;fillColor=#083F75;strokeColor=#06315C;fontColor=#ffffff;shape=mxgraph.c4.person2;align=center;metaEdit=1;points=[[0.5,0,0],[1,0.5,0],[1,0.75,0],[0.75,1,0],[0.5,1,0],[0.25,1,0],[0,0.75,0],[0,0.5,0]];resizable=0;" parent="1" vertex="1"><mxGeometry x="510" y="10" width="200" height="180" as="geometry"/></mxCell></object><mxCell id="7efCB9DDL_w3HXMfLn-I-17" style="edgeStyle=orthogonalEdgeStyle;rounded=0;orthogonalLoop=1;jettySize=auto;html=1;entryX=0;entryY=0.5;entryDx=0;entryDy=0;entryPerimeter=0;" edge="1" parent="1" source="5" target="17"><mxGeometry relative="1" as="geometry"/></mxCell><mxCell id="7efCB9DDL_w3HXMfLn-I-19" value="Stores incoming requests&amp;nbsp;" style="edgeLabel;html=1;align=center;verticalAlign=middle;resizable=0;points=[];" vertex="1" connectable="0" parent="7efCB9DDL_w3HXMfLn-I-17"><mxGeometry x="-0.1469" y="-3" relative="1" as="geometry"><mxPoint x="-1" as="offset"/></mxGeometry></mxCell><mxCell id="7efCB9DDL_w3HXMfLn-I-18" style="edgeStyle=orthogonalEdgeStyle;rounded=0;orthogonalLoop=1;jettySize=auto;html=1;" edge="1" parent="1" source="5" target="16"><mxGeometry relative="1" as="geometry"/></mxCell><mxCell id="7efCB9DDL_w3HXMfLn-I-20" value="Send commands" style="edgeLabel;html=1;align=center;verticalAlign=middle;resizable=0;points=[];" vertex="1" connectable="0" parent="7efCB9DDL_w3HXMfLn-I-18"><mxGeometry x="-0.2234" relative="1" as="geometry"><mxPoint as="offset"/></mxGeometry></mxCell><mxCell id="7efCB9DDL_w3HXMfLn-I-34" style="edgeStyle=orthogonalEdgeStyle;rounded=0;orthogonalLoop=1;jettySize=auto;html=1;" edge="1" parent="1" source="5" target="7efCB9DDL_w3HXMfLn-I-27"><mxGeometry relative="1" as="geometry"><Array as="points"><mxPoint x="320" y="710"/><mxPoint x="700" y="710"/></Array></mxGeometry></mxCell><mxCell id="7efCB9DDL_w3HXMfLn-I-36" value="Query available meals" style="edgeLabel;html=1;align=center;verticalAlign=middle;resizable=0;points=[];" vertex="1" connectable="0" parent="7efCB9DDL_w3HXMfLn-I-34"><mxGeometry x="-0.1518" relative="1" as="geometry"><mxPoint as="offset"/></mxGeometry></mxCell><object placeholders="1" c4Name="BFF" c4Type="Container" c4Technology="Java, Spring Boot" c4Description="Provides API that is used by user interface" label="&lt;font style=&quot;font-size: 16px&quot;&gt;&lt;b&gt;%c4Name%&lt;/b&gt;&lt;/font&gt;&lt;div&gt;[%c4Type%: %c4Technology%]&lt;/div&gt;&lt;br&gt;&lt;div&gt;&lt;font style=&quot;font-size: 11px&quot;&gt;&lt;font color=&quot;#E6E6E6&quot;&gt;%c4Description%&lt;/font&gt;&lt;/div&gt;" id="5"><mxCell style="rounded=1;whiteSpace=wrap;html=1;fontSize=11;labelBackgroundColor=none;fillColor=#23A2D9;fontColor=#ffffff;align=center;arcSize=10;strokeColor=#0E7DAD;metaEdit=1;resizable=0;points=[[0.25,0,0],[0.5,0,0],[0.75,0,0],[1,0.25,0],[1,0.5,0],[1,0.75,0],[0.75,1,0],[0.5,1,0],[0.25,1,0],[0,0.75,0],[0,0.5,0],[0,0.25,0]];" parent="1" vertex="1"><mxGeometry x="200" y="560" width="240" height="120" as="geometry"/></mxCell></object><mxCell id="12" style="edgeStyle=orthogonalEdgeStyle;rounded=0;orthogonalLoop=1;jettySize=auto;html=1;entryX=0.5;entryY=0;entryDx=0;entryDy=0;entryPerimeter=0;" parent="1" source="6" target="5" edge="1"><mxGeometry relative="1" as="geometry"/></mxCell><mxCell id="13" value="Uses&lt;br&gt;[HTTP]" style="edgeLabel;html=1;align=center;verticalAlign=middle;resizable=0;points=[];" parent="12" vertex="1" connectable="0"><mxGeometry x="-0.3744" relative="1" as="geometry"><mxPoint as="offset"/></mxGeometry></mxCell><object placeholders="1" c4Name="UI" c4Type="Container" c4Technology="JavaScript, React" c4Description="User interface for all activities" label="&lt;font style=&quot;font-size: 16px&quot;&gt;&lt;b&gt;%c4Name%&lt;/b&gt;&lt;/font&gt;&lt;div&gt;[%c4Type%: %c4Technology%]&lt;/div&gt;&lt;br&gt;&lt;div&gt;&lt;font style=&quot;font-size: 11px&quot;&gt;&lt;font color=&quot;#E6E6E6&quot;&gt;%c4Description%&lt;/font&gt;&lt;/div&gt;" id="6"><mxCell style="rounded=1;whiteSpace=wrap;html=1;fontSize=11;labelBackgroundColor=none;fillColor=#23A2D9;fontColor=#ffffff;align=center;arcSize=10;strokeColor=#0E7DAD;metaEdit=1;resizable=0;points=[[0.25,0,0],[0.5,0,0],[0.75,0,0],[1,0.25,0],[1,0.5,0],[1,0.75,0],[0.75,1,0],[0.5,1,0],[0.25,1,0],[0,0.75,0],[0,0.5,0],[0,0.25,0]];" parent="1" vertex="1"><mxGeometry x="200" y="340" width="240" height="120" as="geometry"/></mxCell></object><mxCell id="7efCB9DDL_w3HXMfLn-I-21" style="edgeStyle=orthogonalEdgeStyle;rounded=0;orthogonalLoop=1;jettySize=auto;html=1;entryX=0.5;entryY=1;entryDx=0;entryDy=0;entryPerimeter=0;" edge="1" parent="1" source="14" target="16"><mxGeometry relative="1" as="geometry"/></mxCell><mxCell id="7efCB9DDL_w3HXMfLn-I-22" value="Read messages" style="edgeLabel;html=1;align=center;verticalAlign=middle;resizable=0;points=[];" vertex="1" connectable="0" parent="7efCB9DDL_w3HXMfLn-I-21"><mxGeometry x="0.0511" relative="1" as="geometry"><mxPoint as="offset"/></mxGeometry></mxCell><object placeholders="1" c4Name="Ordering" c4Type="Container" c4Technology="Java, Spring Boot" c4Description="Manages orders lifecycle" label="&lt;font style=&quot;font-size: 16px&quot;&gt;&lt;b&gt;%c4Name%&lt;/b&gt;&lt;/font&gt;&lt;div&gt;[%c4Type%: %c4Technology%]&lt;/div&gt;&lt;br&gt;&lt;div&gt;&lt;font style=&quot;font-size: 11px&quot;&gt;&lt;font color=&quot;#E6E6E6&quot;&gt;%c4Description%&lt;/font&gt;&lt;/div&gt;" id="14"><mxCell style="rounded=1;whiteSpace=wrap;html=1;fontSize=11;labelBackgroundColor=none;fillColor=#23A2D9;fontColor=#ffffff;align=center;arcSize=10;strokeColor=#0E7DAD;metaEdit=1;resizable=0;points=[[0.25,0,0],[0.5,0,0],[0.75,0,0],[1,0.25,0],[1,0.5,0],[1,0.75,0],[0.75,1,0],[0.5,1,0],[0.25,1,0],[0,0.75,0],[0,0.5,0],[0,0.25,0]];" vertex="1" parent="1"><mxGeometry x="10" y="1030" width="240" height="120" as="geometry"/></mxCell></object><object placeholders="1" c4Name="Queue" c4Type="Container" c4Technology="Redis" c4Description="Command &amp; event broker" label="&lt;font style=&quot;font-size: 16px&quot;&gt;&lt;b&gt;%c4Name%&lt;/b&gt;&lt;/font&gt;&lt;div&gt;[%c4Type%: %c4Technology%]&lt;/div&gt;&lt;br&gt;&lt;div&gt;&lt;font style=&quot;font-size: 11px&quot;&gt;&lt;font color=&quot;#E6E6E6&quot;&gt;%c4Description%&lt;/font&gt;&lt;/div&gt;" id="16"><mxCell style="rounded=1;whiteSpace=wrap;html=1;fontSize=11;labelBackgroundColor=none;fillColor=#23A2D9;fontColor=#ffffff;align=center;arcSize=10;strokeColor=#0E7DAD;metaEdit=1;resizable=0;points=[[0.25,0,0],[0.5,0,0],[0.75,0,0],[1,0.25,0],[1,0.5,0],[1,0.75,0],[0.75,1,0],[0.5,1,0],[0.25,1,0],[0,0.75,0],[0,0.5,0],[0,0.25,0]];" vertex="1" parent="1"><mxGeometry x="200" y="790" width="240" height="120" as="geometry"/></mxCell></object><object placeholders="1" c4Name="Inbox" c4Type="Container" c4Technology="Redis" c4Description="Temporary store for incoming request" label="&lt;font style=&quot;font-size: 16px&quot;&gt;&lt;b&gt;%c4Name%&lt;/b&gt;&lt;/font&gt;&lt;div&gt;[%c4Type%: %c4Technology%]&lt;/div&gt;&lt;br&gt;&lt;div&gt;&lt;font style=&quot;font-size: 11px&quot;&gt;&lt;font color=&quot;#E6E6E6&quot;&gt;%c4Description%&lt;/font&gt;&lt;/div&gt;" id="17"><mxCell style="rounded=1;whiteSpace=wrap;html=1;fontSize=11;labelBackgroundColor=none;fillColor=#23A2D9;fontColor=#ffffff;align=center;arcSize=10;strokeColor=#0E7DAD;metaEdit=1;resizable=0;points=[[0.25,0,0],[0.5,0,0],[0.75,0,0],[1,0.25,0],[1,0.5,0],[1,0.75,0],[0.75,1,0],[0.5,1,0],[0.25,1,0],[0,0.75,0],[0,0.5,0],[0,0.25,0]];" vertex="1" parent="1"><mxGeometry x="620" y="560" width="240" height="120" as="geometry"/></mxCell></object><mxCell id="7efCB9DDL_w3HXMfLn-I-24" style="edgeStyle=orthogonalEdgeStyle;rounded=0;orthogonalLoop=1;jettySize=auto;html=1;entryX=0.5;entryY=1;entryDx=0;entryDy=0;entryPerimeter=0;" edge="1" parent="1" source="7efCB9DDL_w3HXMfLn-I-23" target="16"><mxGeometry relative="1" as="geometry"/></mxCell><mxCell id="7efCB9DDL_w3HXMfLn-I-25" value="Read messages" style="edgeLabel;html=1;align=center;verticalAlign=middle;resizable=0;points=[];" vertex="1" connectable="0" parent="7efCB9DDL_w3HXMfLn-I-24"><mxGeometry x="-0.1199" y="3" relative="1" as="geometry"><mxPoint as="offset"/></mxGeometry></mxCell><object placeholders="1" c4Name="Delivery" c4Type="Container" c4Technology="Java, Spring Boot" c4Description="Manages deliveries lifecycle" label="&lt;font style=&quot;font-size: 16px&quot;&gt;&lt;b&gt;%c4Name%&lt;/b&gt;&lt;/font&gt;&lt;div&gt;[%c4Type%: %c4Technology%]&lt;/div&gt;&lt;br&gt;&lt;div&gt;&lt;font style=&quot;font-size: 11px&quot;&gt;&lt;font color=&quot;#E6E6E6&quot;&gt;%c4Description%&lt;/font&gt;&lt;/div&gt;" id="7efCB9DDL_w3HXMfLn-I-23"><mxCell style="rounded=1;whiteSpace=wrap;html=1;fontSize=11;labelBackgroundColor=none;fillColor=#23A2D9;fontColor=#ffffff;align=center;arcSize=10;strokeColor=#0E7DAD;metaEdit=1;resizable=0;points=[[0.25,0,0],[0.5,0,0],[0.75,0,0],[1,0.25,0],[1,0.5,0],[1,0.75,0],[0.75,1,0],[0.5,1,0],[0.25,1,0],[0,0.75,0],[0,0.5,0],[0,0.25,0]];" vertex="1" parent="1"><mxGeometry x="370" y="1030" width="240" height="120" as="geometry"/></mxCell></object><mxCell id="7efCB9DDL_w3HXMfLn-I-37" style="edgeStyle=orthogonalEdgeStyle;rounded=0;orthogonalLoop=1;jettySize=auto;html=1;" edge="1" parent="1" source="7efCB9DDL_w3HXMfLn-I-26" target="7efCB9DDL_w3HXMfLn-I-27"><mxGeometry relative="1" as="geometry"/></mxCell><mxCell id="7efCB9DDL_w3HXMfLn-I-38" value="Uses" style="edgeLabel;html=1;align=center;verticalAlign=middle;resizable=0;points=[];" vertex="1" connectable="0" parent="7efCB9DDL_w3HXMfLn-I-37"><mxGeometry x="-0.2786" y="-3" relative="1" as="geometry"><mxPoint as="offset"/></mxGeometry></mxCell><object placeholders="1" c4Name="Food" c4Type="Container" c4Technology="Java, Spring Boot" c4Description="Manages deliveries lifecycle" label="&lt;font style=&quot;font-size: 16px&quot;&gt;&lt;b&gt;%c4Name%&lt;/b&gt;&lt;/font&gt;&lt;div&gt;[%c4Type%: %c4Technology%]&lt;/div&gt;&lt;br&gt;&lt;div&gt;&lt;font style=&quot;font-size: 11px&quot;&gt;&lt;font color=&quot;#E6E6E6&quot;&gt;%c4Description%&lt;/font&gt;&lt;/div&gt;" id="7efCB9DDL_w3HXMfLn-I-26"><mxCell style="rounded=1;whiteSpace=wrap;html=1;fontSize=11;labelBackgroundColor=none;fillColor=#23A2D9;fontColor=#ffffff;align=center;arcSize=10;strokeColor=#0E7DAD;metaEdit=1;resizable=0;points=[[0.25,0,0],[0.5,0,0],[0.75,0,0],[1,0.25,0],[1,0.5,0],[1,0.75,0],[0.75,1,0],[0.5,1,0],[0.25,1,0],[0,0.75,0],[0,0.5,0],[0,0.25,0]];" vertex="1" parent="1"><mxGeometry x="940" y="790" width="240" height="120" as="geometry"/></mxCell></object><object placeholders="1" c4Name="Full Text Search Store" c4Type="Container" c4Technology="Redis" c4Description="Meals storage" label="&lt;font style=&quot;font-size: 16px&quot;&gt;&lt;b&gt;%c4Name%&lt;/b&gt;&lt;/font&gt;&lt;div&gt;[%c4Type%: %c4Technology%]&lt;/div&gt;&lt;br&gt;&lt;div&gt;&lt;font style=&quot;font-size: 11px&quot;&gt;&lt;font color=&quot;#E6E6E6&quot;&gt;%c4Description%&lt;/font&gt;&lt;/div&gt;" id="7efCB9DDL_w3HXMfLn-I-27"><mxCell style="rounded=1;whiteSpace=wrap;html=1;fontSize=11;labelBackgroundColor=none;fillColor=#23A2D9;fontColor=#ffffff;align=center;arcSize=10;strokeColor=#0E7DAD;metaEdit=1;resizable=0;points=[[0.25,0,0],[0.5,0,0],[0.75,0,0],[1,0.25,0],[1,0.5,0],[1,0.75,0],[0.75,1,0],[0.5,1,0],[0.25,1,0],[0,0.75,0],[0,0.5,0],[0,0.25,0]];" vertex="1" parent="1"><mxGeometry x="580" y="790" width="240" height="120" as="geometry"/></mxCell></object><object placeholders="1" c4Name="Delivery Man" c4Type="Person" c4Description="Delivers an order" label="&lt;font style=&quot;font-size: 16px&quot;&gt;&lt;b&gt;%c4Name%&lt;/b&gt;&lt;/font&gt;&lt;div&gt;[%c4Type%]&lt;/div&gt;&lt;br&gt;&lt;div&gt;&lt;font style=&quot;font-size: 11px&quot;&gt;&lt;font color=&quot;#cccccc&quot;&gt;%c4Description%&lt;/font&gt;&lt;/div&gt;" id="2"><mxCell style="html=1;fontSize=11;dashed=0;whiteSpace=wrap;fillColor=#083F75;strokeColor=#06315C;fontColor=#ffffff;shape=mxgraph.c4.person2;align=center;metaEdit=1;points=[[0.5,0,0],[1,0.5,0],[1,0.75,0],[0.75,1,0],[0.5,1,0],[0.25,1,0],[0,0.75,0],[0,0.5,0]];resizable=0;" parent="1" vertex="1"><mxGeometry x="220" width="200" height="180" as="geometry"/></mxCell></object></root></mxGraphModel></diagram><diagram id="PQ561XUMecCFhpAcm0Dr" name="Component Redis"><mxGraphModel dx="784" dy="525" grid="1" gridSize="10" guides="1" tooltips="1" connect="1" arrows="1" fold="1" page="1" pageScale="1" pageWidth="850" pageHeight="1100" math="0" shadow="0"><root><mxCell id="0"/><mxCell id="1" parent="0"/><object placeholders="1" c4Name="Queue" c4Type="Container" c4Technology="Redis" c4Description="Command &amp; event broker" label="&lt;font style=&quot;font-size: 16px&quot;&gt;&lt;b&gt;%c4Name%&lt;/b&gt;&lt;/font&gt;&lt;div&gt;[%c4Type%: %c4Technology%]&lt;/div&gt;&lt;br&gt;&lt;div&gt;&lt;font style=&quot;font-size: 11px&quot;&gt;&lt;font color=&quot;#E6E6E6&quot;&gt;%c4Description%&lt;/font&gt;&lt;/div&gt;" id="PEEnIgDc2lJgDDGQEAod-1"><mxCell style="rounded=1;whiteSpace=wrap;html=1;fontSize=11;labelBackgroundColor=none;fillColor=#23A2D9;fontColor=#ffffff;align=center;arcSize=10;strokeColor=#0E7DAD;metaEdit=1;resizable=0;points=[[0.25,0,0],[0.5,0,0],[0.75,0,0],[1,0.25,0],[1,0.5,0],[1,0.75,0],[0.75,1,0],[0.5,1,0],[0.25,1,0],[0,0.75,0],[0,0.5,0],[0,0.25,0]];" vertex="1" parent="1"><mxGeometry x="490" y="570" width="240" height="120" as="geometry"/></mxCell></object><object placeholders="1" c4Name="Inbox" c4Type="Container" c4Technology="Redis" c4Description="Temporary store for incoming request" label="&lt;font style=&quot;font-size: 16px&quot;&gt;&lt;b&gt;%c4Name%&lt;/b&gt;&lt;/font&gt;&lt;div&gt;[%c4Type%: %c4Technology%]&lt;/div&gt;&lt;br&gt;&lt;div&gt;&lt;font style=&quot;font-size: 11px&quot;&gt;&lt;font color=&quot;#E6E6E6&quot;&gt;%c4Description%&lt;/font&gt;&lt;/div&gt;" id="PEEnIgDc2lJgDDGQEAod-2"><mxCell style="rounded=1;whiteSpace=wrap;html=1;fontSize=11;labelBackgroundColor=none;fillColor=#23A2D9;fontColor=#ffffff;align=center;arcSize=10;strokeColor=#0E7DAD;metaEdit=1;resizable=0;points=[[0.25,0,0],[0.5,0,0],[0.75,0,0],[1,0.25,0],[1,0.5,0],[1,0.75,0],[0.75,1,0],[0.5,1,0],[0.25,1,0],[0,0.75,0],[0,0.5,0],[0,0.25,0]];" vertex="1" parent="1"><mxGeometry x="200" y="570" width="240" height="120" as="geometry"/></mxCell></object></root></mxGraphModel></diagram></mxfile>